REM DIRINDEX 1\2\3,1\2\4,1\2\5,1\2\6
REM DIRNAME cjc157,folder01,folder02,folder03,folder04,folder05
TITLE ""
FILE "141 141.mp3" MP3
  TRACK 01 AUDIO
    TITLE "0:"
    INDEX 01 00:00:00
  TRACK 02 AUDIO
    TITLE "3:cjc157_5276"
    INDEX 01 00:00:11
  TRACK 03 AUDIO
    TITLE "0:"
    INDEX 01 00:01:44
  TRACK 04 AUDIO
    TITLE "4:cjc157_5277"
    INDEX 01 00:02:16
  TRACK 05 AUDIO
    TITLE "0:"
    INDEX 01 00:03:39
  TRACK 06 AUDIO
    TITLE "5:cjc157_5278"
    INDEX 01 00:04:11
  TRACK 07 AUDIO
    TITLE "0:"
    INDEX 01 00:07:00
  TRACK 08 AUDIO
    TITLE "3:cjc157_5279"
    INDEX 01 00:07:45
  TRACK 09 AUDIO
    TITLE "0:"
    INDEX 01 00:09:06
  TRACK 10 AUDIO
    TITLE "4:cjc157_5280"
    INDEX 01 00:09:51
  TRACK 11 AUDIO
    TITLE "0:"
    INDEX 01 00:10:74
  TRACK 12 AUDIO
    TITLE "5:cjc157_5281"
    INDEX 01 00:11:42
  TRACK 13 AUDIO
    TITLE "0:"
    INDEX 01 00:13:51
  TRACK 14 AUDIO
    TITLE "5:cjc157_5282"
    INDEX 01 00:14:25
  TRACK 15 AUDIO
    TITLE "0:"
    INDEX 01 00:16:34
  TRACK 16 AUDIO
    TITLE "3:cjc157_5283"
    INDEX 01 00:17:04
  TRACK 17 AUDIO
    TITLE "0:"
    INDEX 01 00:18:15
  TRACK 18 AUDIO
    TITLE "4:cjc157_5284"
    INDEX 01 00:18:66
  TRACK 19 AUDIO
    TITLE "0:"
    INDEX 01 00:19:73
  TRACK 20 AUDIO
    TITLE "5:cjc157_5285"
    INDEX 01 00:20:45
  TRACK 21 AUDIO
    TITLE "0:"
    INDEX 01 00:22:30
  TRACK 22 AUDIO
    TITLE "5:cjc157_5286"
    INDEX 01 00:22:72
  TRACK 23 AUDIO
    TITLE "0:"
    INDEX 01 00:25:15
  TRACK 24 AUDIO
    TITLE "3:cjc157_5287"
    INDEX 01 00:25:62
  TRACK 25 AUDIO
    TITLE "0:"
    INDEX 01 00:27:08
  TRACK 26 AUDIO
    TITLE "4:cjc157_5288"
    INDEX 01 00:27:53
  TRACK 27 AUDIO
    TITLE "0:"
    INDEX 01 00:29:17
  TRACK 28 AUDIO
    TITLE "5:cjc157_5289"
    INDEX 01 00:29:62
  TRACK 29 AUDIO
    TITLE "0:"
    INDEX 01 00:32:23
  TRACK 30 AUDIO
    TITLE "5:cjc157_5290"
    INDEX 01 00:32:64
  TRACK 31 AUDIO
    TITLE "0:"
    INDEX 01 00:36:21
  TRACK 32 AUDIO
    TITLE "3:cjc157_5291"
    INDEX 01 00:36:72
  TRACK 33 AUDIO
    TITLE "0:"
    INDEX 01 00:38:16
  TRACK 34 AUDIO
    TITLE "4:cjc157_5292"
    INDEX 01 00:38:61
  TRACK 35 AUDIO
    TITLE "0:"
    INDEX 01 00:39:66
  TRACK 36 AUDIO
    TITLE "5:cjc157_5293"
    INDEX 01 00:40:38
  TRACK 37 AUDIO
    TITLE "0:"
    INDEX 01 00:42:37
  TRACK 38 AUDIO
    TITLE "3:cjc157_5294"
    INDEX 01 00:43:11
  TRACK 39 AUDIO
    TITLE "0:"
    INDEX 01 00:44:24
  TRACK 40 AUDIO
    TITLE "4:cjc157_5295"
    INDEX 01 00:44:69
  TRACK 41 AUDIO
    TITLE "0:"
    INDEX 01 00:47:54
  TRACK 42 AUDIO
    TITLE "5:cjc157_5296"
    INDEX 01 00:48:26
  TRACK 43 AUDIO
    TITLE "0:"
    INDEX 01 00:50:03
  TRACK 44 AUDIO
    TITLE "5:cjc157_5297"
    INDEX 01 00:50:52
  TRACK 45 AUDIO
    TITLE "0:"
    INDEX 01 00:52:43
  TRACK 46 AUDIO
    TITLE "3:cjc157_5298"
    INDEX 01 00:53:15
  TRACK 47 AUDIO
    TITLE "0:"
    INDEX 01 00:54:60
  TRACK 48 AUDIO
    TITLE "4:cjc157_5299"
    INDEX 01 00:55:28
  TRACK 49 AUDIO
    TITLE "0:"
    INDEX 01 00:56:55
  TRACK 50 AUDIO
    TITLE "5:cjc157_5300"
    INDEX 01 00:57:29
  TRACK 51 AUDIO
    TITLE "0:"
    INDEX 01 00:59:51
  TRACK 52 AUDIO
    TITLE "5:cjc157_5301"
    INDEX 01 01:00:21
  TRACK 53 AUDIO
    TITLE "0:"
    INDEX 01 01:02:59
  TRACK 54 AUDIO
    TITLE "3:cjc157_5302"
    INDEX 01 01:03:35
  TRACK 55 AUDIO
    TITLE "0:"
    INDEX 01 01:04:48
  TRACK 56 AUDIO
    TITLE "4:cjc157_5303"
    INDEX 01 01:05:21
  TRACK 57 AUDIO
    TITLE "0:"
    INDEX 01 01:06:26
  TRACK 58 AUDIO
    TITLE "5:cjc157_5304"
    INDEX 01 01:07:04
  TRACK 59 AUDIO
    TITLE "0:"
    INDEX 01 01:09:28
  TRACK 60 AUDIO
    TITLE "5:cjc157_5305"
    INDEX 01 01:09:73
  TRACK 61 AUDIO
    TITLE "0:"
    INDEX 01 01:11:70
  TRACK 62 AUDIO
    TITLE "3:cjc157_5306"
    INDEX 01 01:12:40
  TRACK 63 AUDIO
    TITLE "0:"
    INDEX 01 01:13:51
  TRACK 64 AUDIO
    TITLE "4:cjc157_5307"
    INDEX 01 01:14:21
  TRACK 65 AUDIO
    TITLE "0:"
    INDEX 01 01:15:52
  TRACK 66 AUDIO
    TITLE "5:cjc157_5308"
    INDEX 01 01:16:24
  TRACK 67 AUDIO
    TITLE "0:"
    INDEX 01 01:18:68
  TRACK 68 AUDIO
    TITLE "5:cjc157_5309"
    INDEX 01 01:19:40
  TRACK 69 AUDIO
    TITLE "0:"
    INDEX 01 01:20:63
  TRACK 70 AUDIO
    TITLE "3:cjc157_5310"
    INDEX 01 01:21:35
  TRACK 71 AUDIO
    TITLE "0:"
    INDEX 01 01:23:05
  TRACK 72 AUDIO
    TITLE "4:cjc157_5311"
    INDEX 01 01:23:54
  TRACK 73 AUDIO
    TITLE "0:"
    INDEX 01 01:24:71
  TRACK 74 AUDIO
    TITLE "5:cjc157_5312"
    INDEX 01 01:25:43
  TRACK 75 AUDIO
    TITLE "0:"
    INDEX 01 01:27:50
  TRACK 76 AUDIO
    TITLE "5:cjc157_5313"
    INDEX 01 01:28:20
  TRACK 77 AUDIO
    TITLE "0:"
    INDEX 01 01:30:66
